<mxfile host="app.diagrams.net" modified="2021-02-12T12:03:17.620Z" agent="5.0 (Windows NT 10.0; Win64; x64) AppleWebKit/537.36 (KHTML, like Gecko) Chrome/88.0.4324.152 Safari/537.36" etag="BTe4oUp0S_N9iCO9e7Ow" version="14.3.1" type="github">
  <diagram id="C5RBs43oDa-KdzZeNtuy" name="Page-1">
    <mxGraphModel dx="1422" dy="798" grid="1" gridSize="10" guides="1" tooltips="1" connect="1" arrows="1" fold="1" page="1" pageScale="1" pageWidth="827" pageHeight="1169" math="0" shadow="0">
      <root>
        <mxCell id="WIyWlLk6GJQsqaUBKTNV-0" />
        <mxCell id="WIyWlLk6GJQsqaUBKTNV-1" parent="WIyWlLk6GJQsqaUBKTNV-0" />
        <mxCell id="WIyWlLk6GJQsqaUBKTNV-3" value="New price is streamed" style="rounded=1;whiteSpace=wrap;html=1;fontSize=12;glass=0;strokeWidth=1;shadow=0;" parent="WIyWlLk6GJQsqaUBKTNV-1" vertex="1">
          <mxGeometry x="160" y="80" width="120" height="40" as="geometry" />
        </mxCell>
        <mxCell id="WIyWlLk6GJQsqaUBKTNV-6" value="Position?" style="rhombus;whiteSpace=wrap;html=1;shadow=0;fontFamily=Helvetica;fontSize=12;align=center;strokeWidth=1;spacing=6;spacingTop=-4;" parent="WIyWlLk6GJQsqaUBKTNV-1" vertex="1">
          <mxGeometry x="170" y="170" width="100" height="80" as="geometry" />
        </mxCell>
        <mxCell id="WIyWlLk6GJQsqaUBKTNV-10" value="Short or Long?" style="rhombus;whiteSpace=wrap;html=1;shadow=0;fontFamily=Helvetica;fontSize=12;align=center;strokeWidth=1;spacing=6;spacingTop=-4;" parent="WIyWlLk6GJQsqaUBKTNV-1" vertex="1">
          <mxGeometry x="170" y="475" width="100" height="80" as="geometry" />
        </mxCell>
        <mxCell id="DTCYm0wzeM4vk4XQdGB6-1" value="Long condition met?" style="rhombus;whiteSpace=wrap;html=1;shadow=0;fontFamily=Helvetica;fontSize=12;align=center;strokeWidth=1;spacing=6;spacingTop=-4;" vertex="1" parent="WIyWlLk6GJQsqaUBKTNV-1">
          <mxGeometry x="320" y="170" width="160" height="80" as="geometry" />
        </mxCell>
        <mxCell id="DTCYm0wzeM4vk4XQdGB6-5" value="Short condition met?" style="rhombus;whiteSpace=wrap;html=1;shadow=0;fontFamily=Helvetica;fontSize=12;align=center;strokeWidth=1;spacing=6;spacingTop=-4;" vertex="1" parent="WIyWlLk6GJQsqaUBKTNV-1">
          <mxGeometry x="320" y="290" width="160" height="80" as="geometry" />
        </mxCell>
        <mxCell id="DTCYm0wzeM4vk4XQdGB6-10" value="Pass" style="rounded=1;whiteSpace=wrap;html=1;fontSize=12;glass=0;strokeWidth=1;shadow=0;" vertex="1" parent="WIyWlLk6GJQsqaUBKTNV-1">
          <mxGeometry x="340" y="410" width="120" height="40" as="geometry" />
        </mxCell>
        <mxCell id="DTCYm0wzeM4vk4XQdGB6-11" value="" style="endArrow=classic;html=1;fontSize=10;entryX=1;entryY=0.5;entryDx=0;entryDy=0;" edge="1" parent="WIyWlLk6GJQsqaUBKTNV-1" target="WIyWlLk6GJQsqaUBKTNV-3">
          <mxGeometry width="50" height="50" relative="1" as="geometry">
            <mxPoint x="460" y="430" as="sourcePoint" />
            <mxPoint x="450" y="80" as="targetPoint" />
            <Array as="points">
              <mxPoint x="800" y="430" />
              <mxPoint x="800" y="100" />
            </Array>
          </mxGeometry>
        </mxCell>
        <mxCell id="DTCYm0wzeM4vk4XQdGB6-19" value="" style="endArrow=classic;html=1;fontSize=10;entryX=0.5;entryY=0;entryDx=0;entryDy=0;exitX=0.5;exitY=1;exitDx=0;exitDy=0;" edge="1" parent="WIyWlLk6GJQsqaUBKTNV-1" source="WIyWlLk6GJQsqaUBKTNV-3" target="WIyWlLk6GJQsqaUBKTNV-6">
          <mxGeometry relative="1" as="geometry">
            <mxPoint x="180" y="140" as="sourcePoint" />
            <mxPoint x="280" y="140" as="targetPoint" />
          </mxGeometry>
        </mxCell>
        <mxCell id="DTCYm0wzeM4vk4XQdGB6-20" value="Check position" style="edgeLabel;resizable=0;html=1;align=center;verticalAlign=middle;" connectable="0" vertex="1" parent="DTCYm0wzeM4vk4XQdGB6-19">
          <mxGeometry relative="1" as="geometry" />
        </mxCell>
        <mxCell id="DTCYm0wzeM4vk4XQdGB6-24" value="" style="endArrow=classic;html=1;fontSize=10;entryX=0.5;entryY=0;entryDx=0;entryDy=0;exitX=0.5;exitY=1;exitDx=0;exitDy=0;" edge="1" parent="WIyWlLk6GJQsqaUBKTNV-1" target="WIyWlLk6GJQsqaUBKTNV-10">
          <mxGeometry relative="1" as="geometry">
            <mxPoint x="219.5" y="250" as="sourcePoint" />
            <mxPoint x="219.5" y="300" as="targetPoint" />
          </mxGeometry>
        </mxCell>
        <mxCell id="DTCYm0wzeM4vk4XQdGB6-25" value="Yes" style="edgeLabel;resizable=0;html=1;align=center;verticalAlign=middle;" connectable="0" vertex="1" parent="DTCYm0wzeM4vk4XQdGB6-24">
          <mxGeometry relative="1" as="geometry" />
        </mxCell>
        <mxCell id="DTCYm0wzeM4vk4XQdGB6-26" value="" style="endArrow=classic;html=1;fontSize=10;entryX=0;entryY=0.5;entryDx=0;entryDy=0;exitX=0.5;exitY=1;exitDx=0;exitDy=0;" edge="1" parent="WIyWlLk6GJQsqaUBKTNV-1" target="DTCYm0wzeM4vk4XQdGB6-1">
          <mxGeometry relative="1" as="geometry">
            <mxPoint x="269" y="210" as="sourcePoint" />
            <mxPoint x="269" y="260" as="targetPoint" />
          </mxGeometry>
        </mxCell>
        <mxCell id="DTCYm0wzeM4vk4XQdGB6-27" value="No" style="edgeLabel;resizable=0;html=1;align=center;verticalAlign=middle;" connectable="0" vertex="1" parent="DTCYm0wzeM4vk4XQdGB6-26">
          <mxGeometry relative="1" as="geometry" />
        </mxCell>
        <mxCell id="DTCYm0wzeM4vk4XQdGB6-30" value="" style="endArrow=classic;html=1;fontSize=10;exitX=0.5;exitY=1;exitDx=0;exitDy=0;" edge="1" parent="WIyWlLk6GJQsqaUBKTNV-1">
          <mxGeometry relative="1" as="geometry">
            <mxPoint x="399.5" y="250" as="sourcePoint" />
            <mxPoint x="400" y="290" as="targetPoint" />
          </mxGeometry>
        </mxCell>
        <mxCell id="DTCYm0wzeM4vk4XQdGB6-31" value="No" style="edgeLabel;resizable=0;html=1;align=center;verticalAlign=middle;" connectable="0" vertex="1" parent="DTCYm0wzeM4vk4XQdGB6-30">
          <mxGeometry relative="1" as="geometry" />
        </mxCell>
        <mxCell id="DTCYm0wzeM4vk4XQdGB6-33" value="" style="endArrow=classic;html=1;fontSize=10;exitX=0.5;exitY=1;exitDx=0;exitDy=0;" edge="1" parent="WIyWlLk6GJQsqaUBKTNV-1">
          <mxGeometry relative="1" as="geometry">
            <mxPoint x="399.5" y="370" as="sourcePoint" />
            <mxPoint x="400" y="410" as="targetPoint" />
          </mxGeometry>
        </mxCell>
        <mxCell id="DTCYm0wzeM4vk4XQdGB6-34" value="No" style="edgeLabel;resizable=0;html=1;align=center;verticalAlign=middle;" connectable="0" vertex="1" parent="DTCYm0wzeM4vk4XQdGB6-33">
          <mxGeometry relative="1" as="geometry" />
        </mxCell>
        <mxCell id="DTCYm0wzeM4vk4XQdGB6-35" value="" style="endArrow=classic;html=1;fontSize=10;exitX=0.5;exitY=1;exitDx=0;exitDy=0;" edge="1" parent="WIyWlLk6GJQsqaUBKTNV-1">
          <mxGeometry relative="1" as="geometry">
            <mxPoint x="480" y="209.5" as="sourcePoint" />
            <mxPoint x="550" y="210" as="targetPoint" />
          </mxGeometry>
        </mxCell>
        <mxCell id="DTCYm0wzeM4vk4XQdGB6-36" value="Yes" style="edgeLabel;resizable=0;html=1;align=center;verticalAlign=middle;" connectable="0" vertex="1" parent="DTCYm0wzeM4vk4XQdGB6-35">
          <mxGeometry relative="1" as="geometry" />
        </mxCell>
        <mxCell id="DTCYm0wzeM4vk4XQdGB6-37" value="" style="endArrow=classic;html=1;fontSize=10;exitX=0.5;exitY=1;exitDx=0;exitDy=0;" edge="1" parent="WIyWlLk6GJQsqaUBKTNV-1">
          <mxGeometry relative="1" as="geometry">
            <mxPoint x="480" y="329.5" as="sourcePoint" />
            <mxPoint x="550" y="330" as="targetPoint" />
          </mxGeometry>
        </mxCell>
        <mxCell id="DTCYm0wzeM4vk4XQdGB6-38" value="Yes" style="edgeLabel;resizable=0;html=1;align=center;verticalAlign=middle;" connectable="0" vertex="1" parent="DTCYm0wzeM4vk4XQdGB6-37">
          <mxGeometry relative="1" as="geometry" />
        </mxCell>
      </root>
    </mxGraphModel>
  </diagram>
</mxfile>
